<svg width="12" height="12" viewBox="0 0 12 12" fill="none" xmlns="http://www.w3.org/2000/svg">
<path d="M5.4186 2.0415H1.98191C1.72149 2.0415 1.47174 2.14495 1.2876 2.3291C1.10345 2.51324 1 2.763 1 3.02342V9.8968C1 10.1572 1.10345 10.407 1.2876 10.5911C1.47174 10.7753 1.72149 10.8787 1.98191 10.8787H8.85529C9.11571 10.8787 9.36547 10.7753 9.54961 10.5911C9.73375 10.407 9.8372 10.1572 9.8372 9.8968V6.46011" stroke="#2A2A2A" stroke-linecap="round" stroke-linejoin="round"/>
<path d="M9.10071 1.30504C9.29603 1.10973 9.56093 1 9.83715 1C10.1134 1 10.3783 1.10973 10.5736 1.30504C10.7689 1.50036 10.8786 1.76526 10.8786 2.04147C10.8786 2.31769 10.7689 2.58259 10.5736 2.77791L5.9095 7.44199L3.94568 7.93294L4.43663 5.96912L9.10071 1.30504Z" stroke="#2A2A2A" stroke-linecap="round" stroke-linejoin="round"/>
</svg>
