<?xml version="1.0" encoding="utf-8"?>
<!-- Generator: Adobe Illustrator 24.0.2, SVG Export Plug-In . SVG Version: 6.00 Build 0)  -->
<svg version="1.1" id="Layer_1" xmlns="http://www.w3.org/2000/svg" xmlns:xlink="http://www.w3.org/1999/xlink" x="0px" y="0px"
	 viewBox="0 0 512 512" style="enable-background:new 0 0 512 512;" xml:space="preserve">
<style type="text/css">
	.st0{fill-rule:evenodd;clip-rule:evenodd;fill:#F47C4A;}
	.st1{fill-rule:evenodd;clip-rule:evenodd;fill:#DD5B36;}
	.st2{fill-rule:evenodd;clip-rule:evenodd;fill:#1E1E1E;}
	.st3{fill-rule:evenodd;clip-rule:evenodd;fill:#3BB777;}
	.st4{fill-rule:evenodd;clip-rule:evenodd;fill:#229857;}
	.st5{fill-rule:evenodd;clip-rule:evenodd;fill:#FEFEFE;}
</style>
<title></title>
<desc></desc>
<g id="SVG">
	<g id="Orange">
		<g>
			<path id="Fill-1" class="st0" d="M494.9,257.8c0,131.4-106.5,237.9-237.9,237.9S19.2,389.1,19.2,257.8S125.7,57.1,257.1,57.1
				S494.9,126.4,494.9,257.8"/>
			<path id="Fill-3" class="st1" d="M334.5,66.1c69.7,30.4,116.6,90,116.6,177c0,131.3-106.5,237.8-237.8,237.8
				c-18.2,0-35.9-2.2-53-6.1c29.6,13.2,62.3,20.8,96.9,20.8c131.4,0,237.8-106.5,237.8-237.8C494.9,153.5,427.8,88.6,334.5,66.1"/>
			<path id="Fill-5" class="st2" d="M257.1,71.8c-103,0-223.2,48.7-223.2,186C33.9,380.8,134,481,257.1,481s223.2-100.1,223.2-223.2
				C480.3,120.5,360.1,71.8,257.1,71.8 M257.1,510.3C117.9,510.3,4.6,397,4.6,257.8C4.6,129,106.1,42.5,257.1,42.5
				c151,0,252.5,86.5,252.5,215.2C509.6,397,396.3,510.3,257.1,510.3"/>
			<path id="Fill-8" class="st2" d="M257.1,215.4c-57.5,0-81.9-29.9-82.9-31.2c-5-6.3-3.9-15.5,2.4-20.5s15.6-3.9,20.6,2.4
				c0.6,0.7,17.4,20.1,59.9,20.1s59.4-19.4,60.1-20.2c5.1-6.1,14.3-7.1,20.5-2c6.2,5.1,7.3,14.1,2.3,20.3
				C339,185.5,314.6,215.4,257.1,215.4"/>
			<path id="Fill-10" class="st2" d="M257.1,215.4c-6.2,0-12-4-14-10.3c-1.4-4.6-33.9-113.9,53.4-196.4c5.9-5.6,15.1-5.3,20.7,0.6
				c5.5,5.9,5.3,15.1-0.6,20.7c-73.8,69.8-46.7,162.7-45.5,166.6c2.3,7.7-2,15.9-9.7,18.3C259.9,215.2,258.5,215.4,257.1,215.4"/>
			<path id="Fill-12" class="st3" d="M89.3,41.4c161.2-50.9,153.6,79.9,153.6,79.9S140.2,202.7,89.3,41.4"/>
			<path id="Fill-14" class="st4" d="M89.3,41.4l153.6,79.9C242.9,121.3,140.2,202.7,89.3,41.4"/>
			<path id="Fill-16" class="st2" d="M108.1,51.2c15.3,41.3,35.4,66,60,73.6c25.1,7.8,49.4-4.4,60.1-11
				c-0.8-12.6-4.9-39.7-25.6-55.7C182.3,42.3,150.6,40,108.1,51.2 M184.8,156.5c-8.1,0-16.6-1.1-25.3-3.8
				c-37-11.4-65.3-47.3-84.1-106.9c-1.2-3.7-0.8-7.7,1-11.1c1.8-3.4,4.9-6,8.6-7.2C144.5,8.7,190.2,11.2,220.7,35
				c39.6,30.8,36.9,84.9,36.8,87.2c-0.2,4.2-2.3,8-5.5,10.6C250.5,134,221.6,156.5,184.8,156.5"/>
			<path id="Fill-18" class="st5" d="M204.1,273.4c-57.8,0-88.4-41.2-89.7-43c-3.6-4.9-2.5-11.8,2.4-15.3c4.9-3.6,11.7-2.5,15.3,2.4
				c1.1,1.5,27.2,35.7,76.4,33.9c6.1-0.7,11.2,4.4,11.4,10.5c0.3,6-4.4,11.2-10.5,11.4C207.7,273.3,205.9,273.4,204.1,273.4"/>
			<path id="Fill-20" class="st5" d="M112.9,177c6,5.1,6.8,14.2,1.7,20.2c-5.1,6.1-14.2,6.8-20.2,1.7c-6-5.1-6.8-14.2-1.7-20.2
				C97.8,172.6,106.9,171.9,112.9,177"/>
		</g>
	</g>
</g>
</svg>
