<?xml version="1.0" encoding="utf-8"?>
<!-- Generator: Adobe Illustrator 24.0.2, SVG Export Plug-In . SVG Version: 6.00 Build 0)  -->
<svg version="1.1" id="Layer_1" xmlns="http://www.w3.org/2000/svg" xmlns:xlink="http://www.w3.org/1999/xlink" x="0px" y="0px"
	 viewBox="0 0 24 21.6" style="enable-background:new 0 0 24 21.6;" xml:space="preserve">
<style type="text/css">
	.st0{fill:#1B1A18;}
</style>
<path class="st0" d="M12,0c0,0-7.4,6.4-11.6,9.9C0.2,10.1,0,10.4,0,10.8C0,11.5,0.5,12,1.2,12h2.4v8.4c0,0.7,0.5,1.2,1.2,1.2h3.6
	c0.7,0,1.2-0.5,1.2-1.2v-4.8h4.8v4.8c0,0.7,0.5,1.2,1.2,1.2h3.6c0.7,0,1.2-0.5,1.2-1.2V12h2.4c0.7,0,1.2-0.5,1.2-1.2
	c0-0.4-0.2-0.7-0.5-0.9C19.4,6.4,12,0,12,0z"/>
</svg>
