<?xml version="1.0" encoding="utf-8"?>
<!-- Generator: Adobe Illustrator 24.0.2, SVG Export Plug-In . SVG Version: 6.00 Build 0)  -->
<svg version="1.1" id="Layer_1" xmlns="http://www.w3.org/2000/svg" xmlns:xlink="http://www.w3.org/1999/xlink" x="0px" y="0px"
	 viewBox="0 0 24 24" style="enable-background:new 0 0 24 24;" xml:space="preserve">
<style type="text/css">
	.st0{fill:#1B1A18;}
</style>
<path class="st0" d="M6.7,20.4L6.7,20.4c0,1.8-1.4,3.3-3.3,3.3l0,0c-1.8,0-3.3-1.4-3.3-3.3l0,0c0-1.8,1.4-3.3,3.3-3.3l0,0
	C5.2,17.1,6.7,18.6,6.7,20.4z"/>
<path class="st0" d="M6.7,12L6.7,12c0,1.8-1.4,3.3-3.3,3.3l0,0c-1.8,0-3.3-1.4-3.3-3.3l0,0c0-1.8,1.4-3.3,3.3-3.3l0,0
	C5.2,8.7,6.7,10.2,6.7,12z"/>
<path class="st0" d="M6.7,3.6L6.7,3.6c0,1.8-1.4,3.3-3.3,3.3l0,0c-1.8,0-3.3-1.4-3.3-3.3l0,0c0-1.8,1.4-3.3,3.3-3.3l0,0
	C5.2,0.3,6.7,1.8,6.7,3.6z"/>
<path class="st0" d="M21,6.4H11c-1.5,0-2.8-1.3-2.8-2.8v0c0-1.5,1.3-2.8,2.8-2.8h10c1.5,0,2.8,1.3,2.8,2.8v0
	C23.8,5.1,22.6,6.4,21,6.4z"/>
<path class="st0" d="M21,14.8H11c-1.5,0-2.8-1.3-2.8-2.8v0c0-1.5,1.3-2.8,2.8-2.8h10c1.5,0,2.8,1.3,2.8,2.8v0
	C23.8,13.5,22.6,14.8,21,14.8z"/>
<path class="st0" d="M21,23.2H11c-1.5,0-2.8-1.3-2.8-2.8v0c0-1.5,1.3-2.8,2.8-2.8h10c1.5,0,2.8,1.3,2.8,2.8v0
	C23.8,21.9,22.6,23.2,21,23.2z"/>
</svg>
