<?xml version="1.0" encoding="utf-8"?>
<!-- Generator: Adobe Illustrator 24.0.2, SVG Export Plug-In . SVG Version: 6.00 Build 0)  -->
<svg version="1.1" id="Layer_1" xmlns="http://www.w3.org/2000/svg" xmlns:xlink="http://www.w3.org/1999/xlink" x="0px" y="0px"
	 viewBox="0 0 174 30" style="enable-background:new 0 0 174 30;" xml:space="preserve">
<style type="text/css">
	.st0{fill:#FFFFFF;}
	.st1{fill-rule:evenodd;clip-rule:evenodd;fill:#F47C4A;}
	.st2{fill-rule:evenodd;clip-rule:evenodd;fill:#DD5B36;}
	.st3{fill-rule:evenodd;clip-rule:evenodd;fill:#2D2D2D;}
	.st4{fill-rule:evenodd;clip-rule:evenodd;fill:#3BB777;}
	.st5{fill-rule:evenodd;clip-rule:evenodd;fill:#229857;}
	.st6{fill-rule:evenodd;clip-rule:evenodd;fill:#FEFEFE;}
</style>
<path class="st0" d="M163.3,21V8.4h5.2c1.1,0,2.1,0.2,2.9,0.5c0.8,0.4,1.4,0.9,1.9,1.5c0.4,0.7,0.6,1.5,0.6,2.4s-0.2,1.7-0.6,2.4
	c-0.4,0.7-1.1,1.2-1.9,1.5c-0.8,0.4-1.7,0.5-2.9,0.5h-3.9l1-1.1V21H163.3z M165.6,16.5l-1-1.1h3.8c1,0,1.8-0.2,2.3-0.6
	c0.5-0.4,0.8-1.1,0.8-1.9c0-0.8-0.3-1.4-0.8-1.9c-0.5-0.4-1.3-0.6-2.3-0.6h-3.8l1-1.2V16.5z"/>
<path class="st0" d="M150.4,21V8.4h5.2c1.1,0,2.1,0.2,2.9,0.5c0.8,0.4,1.4,0.9,1.9,1.5c0.4,0.7,0.6,1.5,0.6,2.4s-0.2,1.7-0.6,2.4
	c-0.4,0.7-1.1,1.2-1.9,1.5c-0.8,0.4-1.7,0.5-2.9,0.5h-3.9l1-1.1V21H150.4z M152.7,16.5l-1-1.1h3.8c1,0,1.8-0.2,2.3-0.6
	c0.5-0.4,0.8-1.1,0.8-1.9c0-0.8-0.3-1.4-0.8-1.9c-0.5-0.4-1.3-0.6-2.3-0.6h-3.8l1-1.2V16.5z"/>
<path class="st0" d="M135.1,21l5.7-12.6h2.3l5.7,12.6h-2.4l-4.9-11.4h0.9L137.5,21H135.1z M137.7,18.1l0.6-1.8h6.8l0.6,1.8H137.7z"
	/>
<path class="st0" d="M123.1,21v-5l0.5,1.4l-5.5-9.1h2.5l4.4,7.3h-1.4l4.4-7.3h2.3l-5.5,9.1l0.5-1.4v5H123.1z"/>
<path class="st0" d="M107.1,21V8.4h5.2c1.1,0,2.1,0.2,2.9,0.5c0.8,0.4,1.4,0.9,1.9,1.5c0.4,0.7,0.6,1.5,0.6,2.4s-0.2,1.7-0.6,2.4
	c-0.4,0.7-1,1.2-1.9,1.5c-0.8,0.3-1.7,0.5-2.9,0.5h-3.9l1-1.1V21H107.1z M115.3,21l-3.2-4.6h2.5l3.2,4.6H115.3z M109.4,16.5l-1-1.1
	h3.8c1,0,1.8-0.2,2.3-0.7c0.5-0.4,0.8-1.1,0.8-1.9c0-0.8-0.3-1.4-0.8-1.9c-0.5-0.4-1.3-0.6-2.3-0.6h-3.8l1-1.2V16.5z"/>
<path class="st0" d="M97.2,13.6h6.3v1.9h-6.3V13.6z M97.3,19h7.1v2H95V8.4h9.2v2h-6.9V19z"/>
<path class="st0" d="M87.7,21.2c-1,0-1.9-0.2-2.7-0.5c-0.8-0.3-1.5-0.8-2.1-1.4c-0.6-0.6-1.1-1.3-1.4-2.1S81,15.6,81,14.7
	s0.2-1.8,0.5-2.6s0.8-1.5,1.4-2.1c0.6-0.6,1.3-1,2.1-1.3c0.8-0.3,1.7-0.5,2.7-0.5c1,0,2,0.2,2.8,0.5c0.9,0.3,1.6,0.9,2.2,1.6
	l-1.5,1.4c-0.5-0.5-1-0.9-1.5-1.1c-0.6-0.3-1.2-0.4-1.8-0.4c-0.7,0-1.3,0.1-1.8,0.3c-0.5,0.2-1,0.5-1.4,0.9
	c-0.4,0.4-0.7,0.9-0.9,1.4c-0.2,0.5-0.3,1.1-0.3,1.8s0.1,1.2,0.3,1.8c0.2,0.5,0.5,1,0.9,1.4c0.4,0.4,0.9,0.7,1.4,0.9
	c0.6,0.2,1.2,0.3,1.8,0.3c0.7,0,1.3-0.1,1.8-0.4c0.6-0.3,1.1-0.6,1.5-1.1l1.5,1.4c-0.6,0.7-1.3,1.2-2.2,1.6
	C89.7,21,88.8,21.2,87.7,21.2z"/>
<path class="st0" d="M72.7,21.2c-1,0-1.9-0.2-2.7-0.5c-0.8-0.3-1.5-0.8-2.2-1.4c-0.6-0.6-1.1-1.3-1.4-2.1c-0.3-0.8-0.5-1.7-0.5-2.6
	s0.2-1.8,0.5-2.6c0.3-0.8,0.8-1.5,1.4-2.1c0.6-0.6,1.3-1,2.2-1.4c0.8-0.3,1.7-0.5,2.7-0.5c1,0,1.9,0.2,2.7,0.5
	c0.8,0.3,1.5,0.8,2.2,1.4c0.6,0.6,1.1,1.3,1.4,2.1c0.3,0.8,0.5,1.6,0.5,2.6s-0.2,1.8-0.5,2.6s-0.8,1.5-1.4,2.1s-1.3,1-2.2,1.4
	C74.5,21,73.6,21.2,72.7,21.2z M72.6,19.1c0.6,0,1.2-0.1,1.8-0.3c0.5-0.2,1-0.5,1.4-0.9c0.4-0.4,0.7-0.9,0.9-1.4
	c0.2-0.5,0.3-1.1,0.3-1.8s-0.1-1.2-0.3-1.8c-0.2-0.5-0.5-1-0.9-1.4c-0.4-0.4-0.9-0.7-1.4-0.9c-0.5-0.2-1.1-0.3-1.8-0.3
	s-1.2,0.1-1.8,0.3c-0.5,0.2-1,0.5-1.4,0.9c-0.4,0.4-0.7,0.9-0.9,1.4c-0.2,0.5-0.3,1.1-0.3,1.8c0,0.6,0.1,1.2,0.3,1.8
	c0.2,0.5,0.5,1,0.9,1.4c0.4,0.4,0.9,0.7,1.4,0.9C71.4,19,72,19.1,72.6,19.1z"/>
<path class="st0" d="M53.6,21V8.4h5.2c1.1,0,2.1,0.2,2.9,0.5c0.8,0.4,1.4,0.9,1.9,1.5c0.4,0.7,0.6,1.5,0.6,2.4s-0.2,1.7-0.6,2.4
	c-0.4,0.7-1,1.2-1.9,1.5c-0.8,0.3-1.7,0.5-2.9,0.5h-3.9l1-1.1V21H53.6z M61.8,21l-3.2-4.6h2.5l3.2,4.6H61.8z M55.9,16.5l-1-1.1h3.8
	c1,0,1.8-0.2,2.3-0.7c0.5-0.4,0.8-1.1,0.8-1.9c0-0.8-0.3-1.4-0.8-1.9c-0.5-0.4-1.3-0.6-2.3-0.6h-3.8l1-1.2V16.5z"/>
<path class="st0" d="M45.6,21.2c-1,0-1.9-0.2-2.7-0.5c-0.8-0.3-1.5-0.8-2.1-1.4c-0.6-0.6-1.1-1.3-1.4-2.1c-0.3-0.8-0.5-1.7-0.5-2.6
	s0.2-1.8,0.5-2.6c0.3-0.8,0.8-1.5,1.4-2.1c0.6-0.6,1.4-1,2.2-1.3c0.8-0.3,1.7-0.5,2.7-0.5c1.1,0,2,0.2,2.9,0.5
	c0.9,0.3,1.6,0.9,2.2,1.5l-1.5,1.4c-0.5-0.5-1-0.9-1.6-1.1c-0.6-0.2-1.2-0.4-1.9-0.4c-0.7,0-1.3,0.1-1.8,0.3
	c-0.6,0.2-1.1,0.5-1.5,0.9c-0.4,0.4-0.7,0.9-1,1.4c-0.2,0.5-0.3,1.1-0.3,1.8c0,0.6,0.1,1.2,0.3,1.8c0.2,0.5,0.5,1,1,1.4
	c0.4,0.4,0.9,0.7,1.4,0.9c0.6,0.2,1.2,0.3,1.8,0.3c0.6,0,1.2-0.1,1.8-0.3c0.6-0.2,1.1-0.5,1.7-1l1.3,1.7c-0.7,0.5-1.4,0.9-2.3,1.2
	C47.3,21,46.5,21.2,45.6,21.2z M48.3,19.3v-4.7h2.2v5L48.3,19.3z"/>
<path class="st1" d="M29.1,15c0,7.8-6.3,14.1-14.1,14.1C7.2,29.1,0.9,22.8,0.9,15C0.9,7.2,7.2,3.1,15,3.1C22.8,3.1,29.1,7.2,29.1,15
	z"/>
<path class="st2" d="M19.6,3.6c4.1,1.8,6.9,5.3,6.9,10.5c0,7.8-6.3,14.1-14.1,14.1c-1.1,0-2.1-0.1-3.1-0.4c1.8,0.8,3.7,1.2,5.7,1.2
	c7.8,0,14.1-6.3,14.1-14.1C29.1,8.8,25.1,5,19.6,3.6z"/>
<path class="st3" d="M15,4C8.9,4,1.7,6.9,1.7,15c0,7.3,5.9,13.2,13.2,13.2c7.3,0,13.2-5.9,13.2-13.2C28.2,6.9,21.1,4,15,4z M15,30
	C6.7,30,0,23.3,0,15C0,7.4,6,2.2,15,2.2c9,0,15,5.1,15,12.8C30,23.3,23.2,30,15,30z"/>
<path class="st3" d="M15,12.5c-3.4,0-4.9-1.8-4.9-1.9c-0.3-0.4-0.2-0.9,0.1-1.2c0.4-0.3,0.9-0.2,1.2,0.1c0,0,1,1.2,3.6,1.2
	s3.5-1.2,3.6-1.2c0.3-0.4,0.8-0.4,1.2-0.1c0.4,0.3,0.4,0.8,0.1,1.2C19.8,10.7,18.4,12.5,15,12.5z"/>
<path class="st3" d="M15,12.5c-0.4,0-0.7-0.2-0.8-0.6c-0.1-0.3-2-6.8,3.2-11.7c0.3-0.3,0.9-0.3,1.2,0c0.3,0.3,0.3,0.9,0,1.2
	c-4.4,4.1-2.8,9.7-2.7,9.9c0.1,0.5-0.1,0.9-0.6,1.1C15.1,12.5,15.1,12.5,15,12.5z"/>
<path class="st4" d="M5,2.2c9.6-3,9.1,4.7,9.1,4.7S8,11.8,5,2.2z"/>
<path class="st5" d="M5,2.2l9.1,4.7C14.1,6.9,8,11.8,5,2.2z"/>
<path class="st3" d="M6.1,2.8C7,5.2,8.2,6.7,9.7,7.1c1.5,0.5,2.9-0.3,3.6-0.7c0-0.7-0.3-2.4-1.5-3.3C10.5,2.2,8.7,2.1,6.1,2.8z
	 M10.7,9c-0.5,0-1-0.1-1.5-0.2C7,8.1,5.3,6,4.2,2.4C4.1,2.2,4.1,2,4.3,1.8c0.1-0.2,0.3-0.4,0.5-0.4c3.5-1.1,6.2-1,8.1,0.4
	C15.2,3.6,15,6.8,15,7c0,0.2-0.1,0.5-0.3,0.6C14.6,7.7,12.9,9,10.7,9z"/>
<path class="st6" d="M11.8,15.9c-3.4,0-5.2-2.4-5.3-2.6c-0.2-0.3-0.1-0.7,0.1-0.9c0.3-0.2,0.7-0.1,0.9,0.1c0.1,0.1,1.6,2.1,4.5,2
	c0.4,0,0.7,0.3,0.7,0.6c0,0.4-0.3,0.7-0.6,0.7C12,15.9,11.9,15.9,11.8,15.9z"/>
<path class="st6" d="M6.4,10.2c0.4,0.3,0.4,0.8,0.1,1.2c-0.3,0.4-0.8,0.4-1.2,0.1c-0.4-0.3-0.4-0.8-0.1-1.2C5.5,10,6.1,9.9,6.4,10.2
	z"/>
</svg>
