<svg width="174" height="30" viewBox="0 0 174 30" fill="none" xmlns="http://www.w3.org/2000/svg">
<path d="M163.284 21V8.39999H168.468C169.584 8.39999 170.538 8.57999 171.33 8.93999C172.134 9.29999 172.752 9.81599 173.184 10.488C173.616 11.16 173.832 11.958 173.832 12.882C173.832 13.806 173.616 14.604 173.184 15.276C172.752 15.948 172.134 16.464 171.33 16.824C170.538 17.184 169.584 17.364 168.468 17.364H164.58L165.624 16.266V21H163.284ZM165.624 16.518L164.58 15.384H168.36C169.392 15.384 170.166 15.168 170.682 14.736C171.21 14.292 171.474 13.674 171.474 12.882C171.474 12.078 171.21 11.46 170.682 11.028C170.166 10.596 169.392 10.38 168.36 10.38H164.58L165.624 9.22799V16.518Z" fill="white"/>
<path d="M150.399 21V8.39999H155.583C156.699 8.39999 157.653 8.57999 158.445 8.93999C159.249 9.29999 159.867 9.81599 160.299 10.488C160.731 11.16 160.947 11.958 160.947 12.882C160.947 13.806 160.731 14.604 160.299 15.276C159.867 15.948 159.249 16.464 158.445 16.824C157.653 17.184 156.699 17.364 155.583 17.364H151.695L152.739 16.266V21H150.399ZM152.739 16.518L151.695 15.384H155.475C156.507 15.384 157.281 15.168 157.797 14.736C158.325 14.292 158.589 13.674 158.589 12.882C158.589 12.078 158.325 11.46 157.797 11.028C157.281 10.596 156.507 10.38 155.475 10.38H151.695L152.739 9.22799V16.518Z" fill="white"/>
<path d="M135.135 21L140.805 8.39999H143.109L148.797 21H146.349L141.471 9.64199H142.407L137.547 21H135.135ZM137.745 18.084L138.375 16.248H145.179L145.809 18.084H137.745Z" fill="white"/>
<path d="M123.138 21V16.014L123.66 17.454L118.188 8.39999H120.69L125.082 15.69H123.678L128.106 8.39999H130.41L124.938 17.454L125.478 16.014V21H123.138Z" fill="white"/>
<path d="M107.051 21V8.39999H112.235C113.351 8.39999 114.305 8.57999 115.097 8.93999C115.901 9.29999 116.519 9.81599 116.951 10.488C117.383 11.16 117.599 11.958 117.599 12.882C117.599 13.806 117.383 14.604 116.951 15.276C116.519 15.936 115.901 16.446 115.097 16.806C114.305 17.154 113.351 17.328 112.235 17.328H108.347L109.391 16.266V21H107.051ZM115.295 21L112.109 16.428H114.611L117.815 21H115.295ZM109.391 16.518L108.347 15.402H112.127C113.159 15.402 113.933 15.18 114.449 14.736C114.977 14.292 115.241 13.674 115.241 12.882C115.241 12.078 114.977 11.46 114.449 11.028C113.933 10.596 113.159 10.38 112.127 10.38H108.347L109.391 9.22799V16.518Z" fill="white"/>
<path d="M97.1528 13.638H103.417V15.564H97.1528V13.638ZM97.3328 19.038H104.443V21H94.9928V8.39999H104.191V10.362H97.3328V19.038Z" fill="white"/>
<path d="M87.7467 21.18C86.7867 21.18 85.8926 21.024 85.0646 20.712C84.2486 20.388 83.5346 19.938 82.9226 19.362C82.3226 18.774 81.8547 18.084 81.5187 17.292C81.1827 16.5 81.0146 15.636 81.0146 14.7C81.0146 13.764 81.1827 12.9 81.5187 12.108C81.8547 11.316 82.3286 10.632 82.9406 10.056C83.5526 9.468 84.2666 9.018 85.0826 8.706C85.8986 8.382 86.7926 8.22 87.7646 8.22C88.7966 8.22 89.7386 8.4 90.5906 8.76C91.4426 9.108 92.1626 9.63 92.7506 10.326L91.2387 11.748C90.7827 11.256 90.2726 10.89 89.7086 10.65C89.1446 10.398 88.5327 10.272 87.8727 10.272C87.2127 10.272 86.6066 10.38 86.0546 10.596C85.5146 10.812 85.0406 11.118 84.6326 11.514C84.2366 11.91 83.9246 12.378 83.6966 12.918C83.4806 13.458 83.3727 14.052 83.3727 14.7C83.3727 15.348 83.4806 15.942 83.6966 16.482C83.9246 17.022 84.2366 17.49 84.6326 17.886C85.0406 18.282 85.5146 18.588 86.0546 18.804C86.6066 19.02 87.2127 19.128 87.8727 19.128C88.5327 19.128 89.1446 19.008 89.7086 18.768C90.2726 18.516 90.7827 18.138 91.2387 17.634L92.7506 19.074C92.1626 19.758 91.4426 20.28 90.5906 20.64C89.7386 21 88.7907 21.18 87.7467 21.18Z" fill="white"/>
<path d="M72.6663 21.18C71.6823 21.18 70.7763 21.018 69.9483 20.694C69.1203 20.37 68.4003 19.92 67.7883 19.344C67.1763 18.756 66.7023 18.072 66.3663 17.292C66.0303 16.5 65.8623 15.636 65.8623 14.7C65.8623 13.764 66.0303 12.906 66.3663 12.126C66.7023 11.334 67.1763 10.65 67.7883 10.074C68.4003 9.486 69.1203 9.03 69.9483 8.706C70.7763 8.382 71.6763 8.22 72.6483 8.22C73.6323 8.22 74.5323 8.382 75.3483 8.706C76.1763 9.03 76.8963 9.486 77.5083 10.074C78.1203 10.65 78.5943 11.334 78.9303 12.126C79.2663 12.906 79.4343 13.764 79.4343 14.7C79.4343 15.636 79.2663 16.5 78.9303 17.292C78.5943 18.084 78.1203 18.768 77.5083 19.344C76.8963 19.92 76.1763 20.37 75.3483 20.694C74.5323 21.018 73.6383 21.18 72.6663 21.18ZM72.6483 19.128C73.2843 19.128 73.8723 19.02 74.4123 18.804C74.9523 18.588 75.4203 18.282 75.8163 17.886C76.2123 17.478 76.5183 17.01 76.7343 16.482C76.9623 15.942 77.0763 15.348 77.0763 14.7C77.0763 14.052 76.9623 13.464 76.7343 12.936C76.5183 12.396 76.2123 11.928 75.8163 11.532C75.4203 11.124 74.9523 10.812 74.4123 10.596C73.8723 10.38 73.2843 10.272 72.6483 10.272C72.0123 10.272 71.4243 10.38 70.8843 10.596C70.3563 10.812 69.8883 11.124 69.4803 11.532C69.0843 11.928 68.7723 12.396 68.5443 12.936C68.3283 13.464 68.2203 14.052 68.2203 14.7C68.2203 15.336 68.3283 15.924 68.5443 16.464C68.7723 17.004 69.0843 17.478 69.4803 17.886C69.8763 18.282 70.3443 18.588 70.8843 18.804C71.4243 19.02 72.0123 19.128 72.6483 19.128Z" fill="white"/>
<path d="M53.5963 21V8.39999H58.7803C59.8963 8.39999 60.8503 8.57999 61.6423 8.93999C62.4463 9.29999 63.0643 9.81599 63.4963 10.488C63.9283 11.16 64.1443 11.958 64.1443 12.882C64.1443 13.806 63.9283 14.604 63.4963 15.276C63.0643 15.936 62.4463 16.446 61.6423 16.806C60.8503 17.154 59.8963 17.328 58.7803 17.328H54.8923L55.9363 16.266V21H53.5963ZM61.8403 21L58.6543 16.428H61.1563L64.3603 21H61.8403ZM55.9363 16.518L54.8923 15.402H58.6723C59.7043 15.402 60.4783 15.18 60.9943 14.736C61.5223 14.292 61.7863 13.674 61.7863 12.882C61.7863 12.078 61.5223 11.46 60.9943 11.028C60.4783 10.596 59.7043 10.38 58.6723 10.38H54.8923L55.9363 9.22799V16.518Z" fill="white"/>
<path d="M45.578 21.18C44.594 21.18 43.688 21.024 42.86 20.712C42.044 20.388 41.33 19.938 40.718 19.362C40.106 18.774 39.632 18.084 39.296 17.292C38.96 16.5 38.792 15.636 38.792 14.7C38.792 13.764 38.96 12.9 39.296 12.108C39.632 11.316 40.106 10.632 40.718 10.056C41.342 9.468 42.068 9.018 42.896 8.706C43.724 8.382 44.63 8.22 45.614 8.22C46.682 8.22 47.642 8.394 48.494 8.742C49.358 9.09 50.084 9.6 50.672 10.272L49.196 11.712C48.704 11.22 48.17 10.86 47.594 10.632C47.03 10.392 46.406 10.272 45.722 10.272C45.062 10.272 44.45 10.38 43.886 10.596C43.322 10.812 42.836 11.118 42.428 11.514C42.02 11.91 41.702 12.378 41.474 12.918C41.258 13.458 41.15 14.052 41.15 14.7C41.15 15.336 41.258 15.924 41.474 16.464C41.702 17.004 42.02 17.478 42.428 17.886C42.836 18.282 43.316 18.588 43.868 18.804C44.42 19.02 45.032 19.128 45.704 19.128C46.328 19.128 46.928 19.032 47.504 18.84C48.092 18.636 48.65 18.3 49.178 17.832L50.51 19.578C49.85 20.106 49.082 20.508 48.206 20.784C47.342 21.048 46.466 21.18 45.578 21.18ZM48.296 19.272V14.556H50.51V19.578L48.296 19.272Z" fill="white"/>
<path fill-rule="evenodd" clip-rule="evenodd" d="M29.0921 15.0195C29.0921 22.8134 22.7736 29.1319 14.9797 29.1319C7.18576 29.1319 0.868164 22.8134 0.868164 15.0195C0.868164 7.22559 7.18576 3.11685 14.9797 3.11685C22.7736 3.11685 29.0921 7.22559 29.0921 15.0195Z" fill="#F47C4A"/>
<path fill-rule="evenodd" clip-rule="evenodd" d="M19.5697 3.64844C23.7071 5.45371 26.4879 8.98875 26.4879 14.152C26.4879 21.9451 20.1703 28.2635 12.3764 28.2635C11.2941 28.2635 10.2448 28.1307 9.23193 27.8999C10.9895 28.6853 12.931 29.1315 14.9802 29.1315C22.7741 29.1315 29.0917 22.813 29.0917 15.0199C29.0917 8.83513 25.1071 4.9807 19.5697 3.64844Z" fill="#DD5B36"/>
<path fill-rule="evenodd" clip-rule="evenodd" d="M14.9803 3.98493C8.87015 3.98493 1.73584 6.8751 1.73584 15.0197C1.73584 22.3224 7.67763 28.2641 14.9803 28.2641C22.283 28.2641 28.2239 22.3224 28.2239 15.0197C28.2239 6.8751 21.0896 3.98493 14.9803 3.98493ZM14.9803 30C6.72031 30 0 23.2788 0 15.0197C0 7.3811 6.0199 2.24908 14.9803 2.24908C23.9399 2.24908 29.9598 7.3811 29.9598 15.0197C29.9598 23.2788 23.2403 30 14.9803 30Z" fill="#454849"/>
<path fill-rule="evenodd" clip-rule="evenodd" d="M14.9803 12.5048C11.5659 12.5048 10.1226 10.7308 10.0627 10.6544C9.76585 10.2795 9.82921 9.73354 10.205 9.43584C10.5808 9.13815 11.1276 9.2015 11.4244 9.57818C11.4574 9.61724 12.4581 10.769 14.9803 10.769C17.5025 10.769 18.5032 9.61724 18.544 9.56777C18.8495 9.20498 19.3928 9.14856 19.7608 9.44886C20.128 9.74916 20.1913 10.2829 19.8971 10.6544C19.8372 10.7308 18.3938 12.5048 14.9803 12.5048Z" fill="#454849"/>
<path fill-rule="evenodd" clip-rule="evenodd" d="M14.979 12.5039C14.6084 12.5039 14.2664 12.2661 14.151 11.8929C14.0668 11.6195 12.14 5.13702 17.3181 0.237606C17.6661 -0.0922036 18.2155 -0.0765811 18.5453 0.271455C18.8742 0.620359 18.8595 1.16889 18.5106 1.4987C14.1311 5.64215 15.7393 11.15 15.8105 11.3826C15.9493 11.84 15.6916 12.3251 15.2342 12.4657C15.1491 12.4918 15.0632 12.5039 14.979 12.5039Z" fill="#454849"/>
<path fill-rule="evenodd" clip-rule="evenodd" d="M5.02563 2.18485C14.5919 -0.835512 14.1405 6.92544 14.1405 6.92544C14.1405 6.92544 8.046 11.7511 5.02563 2.18485Z" fill="#3BB777"/>
<path fill-rule="evenodd" clip-rule="evenodd" d="M5.02563 2.18484L14.1405 6.92543C14.1405 6.92543 8.046 11.7511 5.02563 2.18484Z" fill="#229857"/>
<path fill-rule="evenodd" clip-rule="evenodd" d="M6.14042 2.76437C7.04566 5.21451 8.24079 6.6813 9.6989 7.12828C11.1891 7.58828 12.6325 6.86704 13.266 6.473C13.2209 5.72659 12.9762 4.11486 11.7472 3.16535C10.5425 2.23407 8.65913 2.10041 6.14042 2.76437ZM10.6901 9.0108C10.2084 9.0108 9.7041 8.94571 9.19029 8.78774C6.99359 8.11424 5.31329 5.98089 4.19801 2.44585C4.12858 2.22626 4.14941 1.98758 4.2553 1.78449C4.36205 1.58053 4.54518 1.42604 4.7639 1.35661C8.29894 0.242196 11.0103 0.391478 12.8234 1.80272C15.1729 3.63229 15.0149 6.83926 15.0071 6.97639C14.9923 7.22288 14.8734 7.45115 14.679 7.60564C14.5914 7.6742 12.8738 9.0108 10.6901 9.0108Z" fill="#454849"/>
<path fill-rule="evenodd" clip-rule="evenodd" d="M11.8387 15.9459C8.40957 15.9459 6.59214 13.5001 6.51403 13.3925C6.30313 13.1017 6.36735 12.6947 6.65811 12.4838C6.94799 12.2729 7.35331 12.3362 7.56595 12.6252C7.63018 12.712 9.17855 14.7456 12.1 14.6388C12.4636 14.5946 12.7631 14.9018 12.7787 15.2611C12.7943 15.6196 12.5157 15.9242 12.1573 15.939C12.0496 15.9442 11.9429 15.9459 11.8387 15.9459Z" fill="#FEFEFE"/>
<path fill-rule="evenodd" clip-rule="evenodd" d="M6.42722 10.2268C6.78567 10.5306 6.8308 11.0679 6.52616 11.4263C6.22239 11.7856 5.68515 11.8299 5.32669 11.5261C4.96824 11.2224 4.92311 10.6851 5.22775 10.3258C5.53152 9.96734 6.06877 9.92307 6.42722 10.2268Z" fill="#FEFEFE"/>
</svg>
