<?xml version="1.0" encoding="utf-8"?>
<!-- Generator: Adobe Illustrator 24.0.2, SVG Export Plug-In . SVG Version: 6.00 Build 0)  -->
<svg version="1.1" id="Layer_1" xmlns="http://www.w3.org/2000/svg" xmlns:xlink="http://www.w3.org/1999/xlink" x="0px" y="0px"
	 viewBox="0 0 21.3 24" style="enable-background:new 0 0 21.3 24;" xml:space="preserve">
<style type="text/css">
	.st0{fill:#1B1A18;}
	.st1{fill:#FFFFFF;}
</style>
<g id="Layer_1_1_">
	<path class="st0" d="M17.3,0H4C1.8,0,0,1.8,0,4v16c0,2.2,1.8,4,4,4h13.3c2.2,0,4-1.8,4-4V4C21.3,1.8,19.5,0,17.3,0z M16,9.3
		c0.4,0,0.7,0.3,0.7,0.7s-0.3,0.7-0.7,0.7H5.3c-0.4,0-0.7-0.3-0.7-0.7S5,9.3,5.3,9.3H16z M16.7,14c0,0.4-0.3,0.7-0.7,0.7H5.3
		c-0.4,0-0.7-0.3-0.7-0.7s0.3-0.7,0.7-0.7H16C16.4,13.3,16.7,13.6,16.7,14z M5.3,17.3H16c0.4,0,0.7,0.3,0.7,0.7s-0.3,0.7-0.7,0.7
		H5.3c-0.4,0-0.7-0.3-0.7-0.7S4.9,17.3,5.3,17.3z M6.7,2.7h8V4c0,0.7-0.6,1.3-1.3,1.3H8C7.3,5.3,6.7,4.7,6.7,4V2.7z"/>
	<path class="st0" d="M16.7,18c0,0.4-0.3,0.7-0.7,0.7H5.3c-0.4,0-0.7-0.3-0.7-0.7s0.3-0.7,0.7-0.7H16C16.4,17.3,16.7,17.6,16.7,18z"
		/>
	<path class="st0" d="M16.7,14c0,0.4-0.3,0.7-0.7,0.7H5.3c-0.4,0-0.7-0.3-0.7-0.7s0.3-0.7,0.7-0.7H16C16.4,13.3,16.7,13.6,16.7,14z"
		/>
	<path class="st0" d="M4.6,10c0-0.4,0.4-0.7,0.7-0.7H16c0.4,0,0.7,0.3,0.7,0.7s-0.3,0.7-0.7,0.7H5.3C4.9,10.7,4.6,10.4,4.6,10z"/>
	<g>
		<path class="st1" d="M16.7,18c0,0.4-0.3,0.7-0.7,0.7H5.3c-0.4,0-0.7-0.3-0.7-0.7s0.3-0.7,0.7-0.7H16C16.4,17.3,16.7,17.6,16.7,18z
			"/>
	</g>
	<g>
		<path class="st1" d="M16.7,14c0,0.4-0.3,0.7-0.7,0.7H5.3c-0.4,0-0.7-0.3-0.7-0.7s0.3-0.7,0.7-0.7H16C16.4,13.3,16.7,13.6,16.7,14z
			"/>
	</g>
	<g>
		<path class="st1" d="M16.7,10c0,0.4-0.3,0.7-0.7,0.7H5.3c-0.4,0-0.7-0.3-0.7-0.7S5,9.3,5.3,9.3H16C16.4,9.3,16.7,9.6,16.7,10z"/>
	</g>
</g>
</svg>
